<svg xmlns="http://www.w3.org/2000/svg" viewBox="0 0 120 120" style="color:#f8ecdb"><defs>
    <linearGradient id="gold" x1="0" y1="0" x2="0" y2="1">
      <stop stop-color="#fff1a6"/><stop offset=".5" stop-color="#ffd24d"/><stop offset="1" stop-color="#f2b25f"/>
    </linearGradient>
    <linearGradient id="teal" x1="0" y1="0" x2="0" y2="1">
      <stop stop-color="#9afff4"/><stop offset=".52" stop-color="#43e0cf"/><stop offset="1" stop-color="#23bbaa"/>
    </linearGradient>
    <linearGradient id="coral" x1="0" y1="0" x2="0" y2="1">
      <stop stop-color="#ffb9c8"/><stop offset=".5" stop-color="#ff6a5c"/><stop offset="1" stop-color="#b8304f"/>
    </linearGradient>
    <linearGradient id="violet" x1="0" y1="0" x2="0" y2="1">
      <stop stop-color="#e7c1ff"/><stop offset=".55" stop-color="#a871c7"/><stop offset="1" stop-color="#6c3d91"/>
    </linearGradient>
    <filter id="glow" x="-50%" y="-50%" width="200%" height="200%">
      <feDropShadow dx="0" dy="4" stdDeviation="6" flood-color="#0d0305" flood-opacity=".55"/>
    </filter>
    <filter id="teal-glow" x="-50%" y="-50%" width="200%" height="200%">
      <feDropShadow dx="0" dy="0" stdDeviation="7" flood-color="#43e0cf" flood-opacity=".48"/>
    </filter>
  </defs>
    <circle cx="60" cy="60" r="51" fill="url(#gold)" stroke="#ffce97" stroke-width="6" filter="url(#glow)"/>
    <circle cx="60" cy="60" r="38" fill="none" stroke="#f2b25f" stroke-width="5"/>
    <path d="M72 39c-7-5-25-6-25 5 0 15 29 5 29 22 0 13-20 14-30 6M60 30v60" fill="none" stroke="#b56e18" stroke-width="8" stroke-linecap="round"/>
    <path d="M30 37a40 40 0 0 1 44-19" fill="none" stroke="#fff" stroke-opacity=".52" stroke-width="7" stroke-linecap="round"/>
  </svg>
