<svg xmlns="http://www.w3.org/2000/svg">
  <symbol id="icon-home" viewBox="0 0 24 24">
    <path d="M3 11.2 12 3l9 8.2v9.3a.5.5 0 0 1-.5.5H15v-6H9v6H3.5a.5.5 0 0 1-.5-.5z" fill="currentColor"/>
  </symbol>
  <symbol id="icon-race" viewBox="0 0 24 24">
    <path d="M5 3v18M6 5h12l-2 3 2 3H6z" fill="none" stroke="currentColor" stroke-width="2.2" stroke-linecap="round" stroke-linejoin="round"/>
  </symbol>
  <symbol id="icon-practice" viewBox="0 0 24 24">
    <circle cx="10" cy="12" r="7" fill="none" stroke="currentColor" stroke-width="2"/>
    <circle cx="10" cy="12" r="3" fill="none" stroke="currentColor" stroke-width="2"/>
    <path d="m13 9 8-6-2 5 2 2-5 1z" fill="currentColor"/>
  </symbol>
  <symbol id="icon-multiplayer" viewBox="0 0 24 24">
    <circle cx="8" cy="9" r="3" fill="currentColor"/><circle cx="16.5" cy="10" r="2.5" fill="currentColor"/>
    <path d="M2.5 20c.2-4 2-6 5.5-6s5.3 2 5.5 6zm10 0c.1-3.2 1.5-4.8 4.3-4.8 2.7 0 4.2 1.6 4.4 4.8z" fill="currentColor"/>
  </symbol>
  <symbol id="icon-challenge" viewBox="0 0 24 24">
    <path d="m5 4 14 16M19 4 5 20" stroke="currentColor" stroke-width="2.4" stroke-linecap="round"/>
    <path d="m4 3 4 1-3 3zm16 0-4 1 3 3z" fill="currentColor"/>
  </symbol>
  <symbol id="icon-endless" viewBox="0 0 24 24">
    <path d="M4 12c3-6 6-6 8 0s5 6 8 0c-3-6-6-6-8 0s-5 6-8 0Z" fill="none" stroke="currentColor" stroke-width="2.2" stroke-linejoin="round"/>
  </symbol>
  <symbol id="icon-daily" viewBox="0 0 24 24">
    <rect x="3" y="5" width="18" height="16" rx="3" fill="none" stroke="currentColor" stroke-width="2"/>
    <path d="M7 3v4m10-4v4M3 10h18" stroke="currentColor" stroke-width="2" stroke-linecap="round"/>
    <path d="m12 13 1.1 2.2 2.4.4-1.7 1.7.4 2.4-2.2-1.2-2.2 1.2.4-2.4-1.7-1.7 2.4-.4z" fill="currentColor"/>
  </symbol>
  <symbol id="icon-customize" viewBox="0 0 24 24">
    <path d="M8 4c1.4 2 6.6 2 8 0l4 4-3 3-1.5-1V21h-7V10L7 11 4 8z" fill="currentColor"/>
  </symbol>
  <symbol id="icon-store" viewBox="0 0 24 24">
    <path d="M3 4h2l2.2 10.5h10.7L21 7H6" fill="none" stroke="currentColor" stroke-width="2.2" stroke-linecap="round" stroke-linejoin="round"/>
    <circle cx="9" cy="19" r="2" fill="currentColor"/><circle cx="18" cy="19" r="2" fill="currentColor"/>
  </symbol>
  <symbol id="icon-profile" viewBox="0 0 24 24">
    <circle cx="12" cy="8" r="4" fill="currentColor"/><path d="M4 21c.3-5 2.8-7 8-7s7.7 2 8 7z" fill="currentColor"/>
  </symbol>
  <symbol id="icon-settings" viewBox="0 0 24 24">
    <path d="m10 2 1-1h2l1 1 .5 2 2 .8 1.8-1 1.4 1.4-1 1.8.8 2 2 .5 1 1v2l-1 1-2 .5-.8 2 1 1.8-1.4 1.4-1.8-1-2 .8-.5 2-1 1h-2l-1-1-.5-2-2-.8-1.8 1-1.4-1.4 1-1.8-.8-2-2-.5-1-1v-2l1-1 2-.5.8-2-1-1.8 1.4-1.4 1.8 1 2-.8z" fill="currentColor"/>
    <circle cx="12" cy="12" r="3" fill="#0d0305"/>
  </symbol>
  <symbol id="icon-play" viewBox="0 0 24 24">
    <path d="m8 5 12 7-12 7z" fill="currentColor"/>
  </symbol>
  <symbol id="icon-coin" viewBox="0 0 24 24">
    <circle cx="12" cy="12" r="9" fill="none" stroke="currentColor" stroke-width="2.5"/>
    <path d="M14.8 8.5c-.7-.6-1.6-.9-2.8-.9-1.5 0-2.7.7-2.7 1.8 0 2.8 5.7 1.2 5.7 4.3 0 1.4-1.2 2.3-3 2.3-1.3 0-2.4-.4-3.2-1.2M12 6v12" fill="none" stroke="currentColor" stroke-width="1.6" stroke-linecap="round"/>
  </symbol>
  <symbol id="icon-gem" viewBox="0 0 24 24">
    <path d="m5 5 4-3h6l4 3 2 4-9 13L3 9z" fill="currentColor"/>
  </symbol>
  <symbol id="icon-lock" viewBox="0 0 24 24">
    <rect x="4" y="10" width="16" height="12" rx="3" fill="currentColor"/><path d="M8 10V7a4 4 0 0 1 8 0v3" fill="none" stroke="currentColor" stroke-width="2.2"/>
  </symbol>
  <symbol id="icon-offline" viewBox="0 0 24 24">
    <path d="M4 8.5C9 4 15 4 20 8.5M7 12c3-2.7 7-2.7 10 0m-6.5 4a2.1 2.1 0 0 1 3 0M3 3l18 18" fill="none" stroke="currentColor" stroke-width="2.2" stroke-linecap="round"/>
  </symbol>
  <symbol id="icon-chevron" viewBox="0 0 24 24">
    <path d="m9 5 7 7-7 7" fill="none" stroke="currentColor" stroke-width="2.4" stroke-linecap="round" stroke-linejoin="round"/>
  </symbol>
</svg>
